<svg width="25" height="24" viewBox="0 0 25 24" fill="none" xmlns="http://www.w3.org/2000/svg">
<path fill-rule="evenodd" clip-rule="evenodd" d="M12.5002 4C7.89779 4 4.16683 7.58172 4.16683 12C4.16683 13.6921 4.71292 15.2588 5.64513 16.5503C5.95363 16.9778 6.028 17.5484 5.78363 18.0532L4.84109 20H12.5002C17.1025 20 20.8335 16.4183 20.8335 12C20.8335 7.58172 17.1025 4 12.5002 4ZM2.0835 12C2.0835 6.47715 6.7472 2 12.5002 2C18.2531 2 22.9168 6.47715 22.9168 12C22.9168 17.5228 18.2531 22 12.5002 22H4.02265C2.84117 22 2.09377 20.7933 2.6398 19.8016L3.77282 17.4613C2.70455 15.8909 2.0835 14.0137 2.0835 12Z" fill="#246161"/>
<path fill-rule="evenodd" clip-rule="evenodd" d="M8.3335 14C8.3335 13.4477 8.79987 13 9.37516 13H15.6252C16.2005 13 16.6668 13.4477 16.6668 14C16.6668 14.5523 16.2005 15 15.6252 15H9.37516C8.79987 15 8.3335 14.5523 8.3335 14Z" fill="#246161"/>
<path fill-rule="evenodd" clip-rule="evenodd" d="M8.3335 10C8.3335 9.44772 8.79987 9 9.37516 9H11.4585C12.0338 9 12.5002 9.44772 12.5002 10C12.5002 10.5523 12.0338 11 11.4585 11H9.37516C8.79987 11 8.3335 10.5523 8.3335 10Z" fill="#246161"/>
</svg>
