<svg width="36" height="36" viewBox="0 0 36 36" fill="none" xmlns="http://www.w3.org/2000/svg">
<path fill-rule="evenodd" clip-rule="evenodd" d="M18 6C11.3726 6 6 11.3726 6 18C6 20.5382 6.78637 22.8883 8.12875 24.8255C8.573 25.4666 8.68009 26.3226 8.3282 27.0797L6.97093 30H18C24.6274 30 30 24.6274 30 18C30 11.3726 24.6274 6 18 6ZM3 18C3 9.71573 9.71573 3 18 3C26.2843 3 33 9.71573 33 18C33 26.2843 26.2843 33 18 33H5.79238C4.09105 33 3.01479 31.19 3.80108 29.7023L5.43263 26.1919C3.89432 23.8363 3 21.0205 3 18Z" fill="#365787"/>
<path fill-rule="evenodd" clip-rule="evenodd" d="M12 21C12 20.1716 12.6716 19.5 13.5 19.5H22.5C23.3284 19.5 24 20.1716 24 21C24 21.8284 23.3284 22.5 22.5 22.5H13.5C12.6716 22.5 12 21.8284 12 21Z" fill="#365787"/>
<path fill-rule="evenodd" clip-rule="evenodd" d="M12 15C12 14.1716 12.6716 13.5 13.5 13.5H16.5C17.3284 13.5 18 14.1716 18 15C18 15.8284 17.3284 16.5 16.5 16.5H13.5C12.6716 16.5 12 15.8284 12 15Z" fill="#365787"/>
</svg>
