<svg width="36" height="36" viewBox="0 0 36 36" fill="none" xmlns="http://www.w3.org/2000/svg">
<path fill-rule="evenodd" clip-rule="evenodd" d="M12.0281 4.99963C13.1246 3.77453 14.7229 3 16.5 3H19.5C22.8137 3 25.5 5.68629 25.5 9V17.25C25.5 18.0784 24.8284 18.75 24 18.75C23.1716 18.75 22.5 18.0784 22.5 17.25V9C22.5 7.34315 21.1569 6 19.5 6H16.5C15.6116 6 14.815 6.38422 14.2635 7.00037C13.7111 7.61766 12.7628 7.67019 12.1455 7.1177C11.5282 6.56521 11.4756 5.61692 12.0281 4.99963ZM13.5 12V18C13.5 19.6569 14.8431 21 16.5 21H19.5C19.9868 21 20.4425 20.8852 20.8455 20.6825L22.1937 23.3624C21.382 23.7708 20.4656 24 19.5 24H16.5C13.1863 24 10.5 21.3137 10.5 18V12H13.5Z" fill="#365787"/>
<path fill-rule="evenodd" clip-rule="evenodd" d="M7.5 15C8.32843 15 9 15.6716 9 16.5V18C9 22.1421 12.3579 25.5 16.5 25.5H19.5C21.1346 25.5 22.6431 24.9788 23.874 24.0933C24.5465 23.6095 25.4839 23.7625 25.9677 24.435C26.4514 25.1075 26.2985 26.0448 25.626 26.5286C23.9016 27.7691 21.7839 28.5 19.5 28.5H16.5C10.701 28.5 6 23.799 6 18V16.5C6 15.6716 6.67157 15 7.5 15ZM28.5 15C29.3284 15 30 15.6716 30 16.5V18C30 19.2245 29.7898 20.4032 29.4021 21.4999C29.1261 22.2809 28.2691 22.6903 27.488 22.4143C26.7069 22.1382 26.2976 21.2812 26.5736 20.5001C26.8493 19.7201 27 18.8793 27 18V16.5C27 15.6716 27.6716 15 28.5 15Z" fill="#365787"/>
<path fill-rule="evenodd" clip-rule="evenodd" d="M18 25.5C18.8284 25.5 19.5 26.1716 19.5 27V31.5C19.5 32.3284 18.8284 33 18 33C17.1716 33 16.5 32.3284 16.5 31.5L16.5 27C16.5 26.1716 17.1716 25.5 18 25.5Z" fill="#365787"/>
<path fill-rule="evenodd" clip-rule="evenodd" d="M3.43934 3.43934C4.02513 2.85355 4.97487 2.85355 5.56066 3.43934L32.5607 30.4393C33.1464 31.0251 33.1464 31.9749 32.5607 32.5607C31.9749 33.1464 31.0251 33.1464 30.4393 32.5607L3.43934 5.56066C2.85355 4.97487 2.85355 4.02513 3.43934 3.43934Z" fill="#365787"/>
</svg>
