<?xml version="1.0" encoding="UTF-8"?>
<svg id="Layer_1" data-name="Layer 1" xmlns="http://www.w3.org/2000/svg" viewBox="0 0 24 30">
  <defs>
    <style>
      .cls-1 {
        fill: #375888;
        fill-rule: evenodd;
      }
    </style>
  </defs>
  <path class="cls-1" d="M1.5,12c.83,0,1.5,.67,1.5,1.5v1.5c0,4.14,3.36,7.5,7.5,7.5h1.5v3h-1.5c-5.8,0-10.5-4.7-10.5-10.5v-1.5c0-.83,.67-1.5,1.5-1.5Zm22.5,1.5v1.5c0,5.8-4.7,10.5-10.5,10.5h-1.5v-3s1.5,0,1.5,0c4.14,0,7.5-3.36,7.5-7.5v-1.5c0-.83,.67-1.5,1.5-1.5s1.5,.67,1.5,1.5Z"/>
  <path class="cls-1" d="M12,22.5c.83,0,1.5,.67,1.5,1.5v4.5c0,.83-.67,1.5-1.5,1.5s-1.5-.67-1.5-1.5v-4.5c0-.83,.67-1.5,1.5-1.5Z"/>
  <g>
    <path class="cls-1" d="M6.01,2c1.1-1.23,2.69-2,4.47-2h3c3.31,0,6,2.69,6,6V14.25c0,.83-.67,1.5-1.5,1.5s-1.5-.67-1.5-1.5V6c0-1.66-1.34-3-3-3h-3c-.89,0-1.69,.38-2.24,1"/>
    <path class="cls-1" d="M15.75,4c-.55-.62-1.35-1-2.24-1h-3c-1.66,0-3,1.34-3,3V14.25c0,.83-.67,1.5-1.5,1.5s-1.5-.67-1.5-1.5V6C4.51,2.69,7.2,0,10.51,0h3c1.78,0,3.38,.77,4.47,2"/>
    <path class="cls-1" d="M8.25,15.87c.55,.62,1.35,1,2.24,1h3c1.66,0,3-1.34,3-3V5.62c0-.83,.67-1.5,1.5-1.5s1.5,.67,1.5,1.5V13.87c0,3.31-2.69,6-6,6h-3c-1.78,0-3.38-.77-4.47-2"/>
    <path class="cls-1" d="M17.99,17.88c-1.1,1.23-2.69,2-4.47,2h-3c-3.31,0-6-2.69-6-6V5.62c0-.83,.67-1.5,1.5-1.5s1.5,.67,1.5,1.5V13.87c0,1.66,1.34,3,3,3h3c.89,0,1.69-.38,2.24-1"/>
  </g>
</svg>