<svg width="36" height="36" viewBox="0 0 36 36" fill="none" xmlns="http://www.w3.org/2000/svg">
<path fill-rule="evenodd" clip-rule="evenodd" d="M21.4393 4.93934C22.0251 4.35355 22.9749 4.35355 23.5607 4.93934L26.25 7.62868L28.9393 4.93934C29.5251 4.35355 30.4749 4.35355 31.0607 4.93934C31.6464 5.52513 31.6464 6.47487 31.0607 7.06066L28.3713 9.75L31.0607 12.4393C31.6465 13.0251 31.6465 13.9749 31.0607 14.5607C30.4749 15.1464 29.5251 15.1464 28.9393 14.5607L26.25 11.8713L23.5607 14.5607C22.9749 15.1464 22.0251 15.1464 21.4393 14.5607C20.8536 13.9749 20.8536 13.0251 21.4393 12.4393L24.1287 9.75L21.4393 7.06066C20.8536 6.47487 20.8536 5.52513 21.4393 4.93934Z" fill="white"/>
<path fill-rule="evenodd" clip-rule="evenodd" d="M7.45253 7.82321C11.0798 6.61334 14.7453 8.88547 15.7635 12.5641C16.4572 15.0709 15.8002 17.6993 14.198 19.4992C14.5261 19.9242 14.8847 20.3328 15.2739 20.7223C15.6613 21.11 16.0675 21.4672 16.4898 21.7942C18.289 20.1794 20.9254 19.515 23.4394 20.2118C27.1173 21.2312 29.3852 24.8995 28.1772 28.5267C27.3846 30.9065 25.9067 32.3525 23.9356 32.8284C22.1042 33.2707 20.1294 32.8006 18.3878 32.0765C14.8799 30.6183 11.4161 27.746 9.83423 26.1629C8.21499 24.5425 5.35508 21.0737 3.91009 17.5724C3.19254 15.8338 2.73052 13.8664 3.1738 12.0433C3.65069 10.0819 5.08928 8.61142 7.45253 7.82321ZM12.8721 13.3644C12.2531 11.1277 10.1963 10.0705 8.40176 10.6691C6.82437 11.1952 6.27726 11.9773 6.08887 12.7521C5.86684 13.6652 6.05991 14.9177 6.6832 16.428C7.91991 19.4245 10.4847 22.5697 11.9563 24.0424C13.3923 25.4795 16.5342 28.0571 19.5393 29.3064C21.0542 29.9361 22.3128 30.1341 23.2315 29.9122C24.0106 29.7241 24.7997 29.1738 25.3309 27.5787C25.93 25.78 24.871 23.7217 22.638 23.1028C20.9762 22.6421 19.2676 23.1758 18.2508 24.2648C17.5942 24.968 16.3425 25.3689 15.2776 24.6256C14.5283 24.1026 13.8167 23.5082 13.1518 22.8428C12.4859 22.1764 11.8913 21.4631 11.3682 20.7121C10.6296 19.6518 11.0237 18.405 11.7218 17.7468C12.8028 16.7277 13.3312 15.0229 12.8721 13.3644Z" fill="white"/>
</svg>
