<svg width="36" height="36" viewBox="0 0 36 36" fill="none" xmlns="http://www.w3.org/2000/svg">
<path d="M28.5 4.5H7.5C6.30653 4.5 5.16193 4.97411 4.31802 5.81802C3.47411 6.66193 3 7.80653 3 9V21C3 22.1935 3.47411 23.3381 4.31802 24.182C5.16193 25.0259 6.30653 25.5 7.5 25.5H16.5V28.5H10.5C10.1022 28.5 9.72064 28.658 9.43934 28.9393C9.15804 29.2206 9 29.6022 9 30C9 30.3978 9.15804 30.7794 9.43934 31.0607C9.72064 31.342 10.1022 31.5 10.5 31.5H25.5C25.8978 31.5 26.2794 31.342 26.5607 31.0607C26.842 30.7794 27 30.3978 27 30C27 29.6022 26.842 29.2206 26.5607 28.9393C26.2794 28.658 25.8978 28.5 25.5 28.5H19.5V25.5H28.5C29.6935 25.5 30.8381 25.0259 31.682 24.182C32.5259 23.3381 33 22.1935 33 21V9C33 7.80653 32.5259 6.66193 31.682 5.81802C30.8381 4.97411 29.6935 4.5 28.5 4.5ZM30 21C30 21.3978 29.842 21.7794 29.5607 22.0607C29.2794 22.342 28.8978 22.5 28.5 22.5H7.5C7.10218 22.5 6.72064 22.342 6.43934 22.0607C6.15804 21.7794 6 21.3978 6 21V9C6 8.60218 6.15804 8.22064 6.43934 7.93934C6.72064 7.65804 7.10218 7.5 7.5 7.5H28.5C28.8978 7.5 29.2794 7.65804 29.5607 7.93934C29.842 8.22064 30 8.60218 30 9V21Z" fill="#365787"/>
</svg>
