<?xml version="1.0" encoding="UTF-8"?>
<svg id="Layer_1" data-name="Layer 1" xmlns="http://www.w3.org/2000/svg" viewBox="0 0 16.61 16.61">
  <defs>
    <style>
      .cls-1 {
        fill: #365788;
      }
    </style>
  </defs>
  <path class="cls-1" d="M16.61,8.6c-.03,.1-.05,.2-.08,.3-.17,.56-.5,.92-.96,1.15-2.05,.98-4.09,1.97-6.14,2.95-2.36,1.14-4.73,2.27-7.09,3.42-.89,.44-1.65,.05-2.04-.58-.3-.48-.37-1.01-.24-1.59,.43-1.94,.85-3.88,1.28-5.83,.02-.07,.02-.16,0-.23C.9,6.24,.47,4.29,.05,2.34-.22,1.08,.58-.06,1.7,0c.19,0,.39,.08,.57,.17C6.7,2.29,11.12,4.42,15.55,6.55c.55,.27,.91,.72,1.03,1.41,0,.02,.02,.03,.03,.04v.6Zm-14.36,.26c-.42,1.9-.83,3.78-1.25,5.66-.05,.24-.03,.47,.11,.67,.21,.3,.48,.34,.87,.16,3.49-1.67,6.97-3.35,10.46-5.02,.91-.44,1.81-.87,2.72-1.31,.18-.09,.35-.2,.42-.43,.15-.44-.01-.8-.44-1-3.72-1.8-7.45-3.59-11.17-5.38-.69-.33-1.38-.66-2.06-.99-.21-.1-.42-.13-.62,0-.27,.19-.36,.5-.27,.91,.27,1.27,.55,2.53,.83,3.8,.13,.6,.27,1.19,.4,1.8H7.02c.12,0,.25,.04,.35,.12,.18,.13,.24,.41,.17,.63-.07,.23-.25,.37-.48,.37H2.25Z"/>
</svg>