<svg width="24" height="24" viewBox="0 0 24 24" fill="none" xmlns="http://www.w3.org/2000/svg">
<path fill-rule="evenodd" clip-rule="evenodd" d="M12.7071 21.7071C12.3166 22.0976 11.6834 22.0976 11.2929 21.7071L7.29289 17.7071C6.90237 17.3166 6.90237 16.6834 7.29289 16.2929C7.68342 15.9024 8.31658 15.9024 8.70711 16.2929L12 19.5858L15.2929 16.2929C15.6834 15.9024 16.3166 15.9024 16.7071 16.2929C17.0976 16.6834 17.0976 17.3166 16.7071 17.7071L12.7071 21.7071Z" fill="white"/>
<path fill-rule="evenodd" clip-rule="evenodd" d="M12 22C11.4477 22 11 21.5523 11 21L11 9C11 8.44771 11.4477 8 12 8C12.5523 8 13 8.44771 13 9L13 21C13 21.5523 12.5523 22 12 22Z" fill="white"/>
<path fill-rule="evenodd" clip-rule="evenodd" d="M19 12C18.4477 12 18 11.5523 18 11V6C18 4.89543 17.1046 4 16 4L8 4C6.89543 4 6 4.89543 6 6V11C6 11.5523 5.55229 12 5 12C4.44771 12 4 11.5523 4 11V6C4 3.79086 5.79086 2 8 2L16 2C18.2091 2 20 3.79086 20 6V11C20 11.5523 19.5523 12 19 12Z" fill="white"/>
</svg>
