<svg width="24" height="24" viewBox="0 0 24 24" fill="none" xmlns="http://www.w3.org/2000/svg">
<path d="M3.19023 16.5425L3.1902 16.5426L3.19948 16.5462C3.25746 16.5687 3.31071 16.6018 3.35651 16.6437C3.39848 16.6895 3.43157 16.7428 3.45405 16.8008L3.45386 16.8008L3.45933 16.8138C3.49762 16.9049 3.50808 17.0052 3.48939 17.1022C3.47154 17.1949 3.42784 17.2805 3.36348 17.3493C3.31105 17.3949 3.25162 17.4318 3.18744 17.4587L3.1874 17.4586L3.17811 17.4627C3.12207 17.4874 3.06149 17.5002 3.00023 17.5002C2.93897 17.5002 2.87839 17.4874 2.82236 17.4627L2.8224 17.4626L2.81302 17.4587C2.74885 17.4318 2.68942 17.3949 2.63699 17.3493C2.57262 17.2805 2.52893 17.1949 2.51108 17.1022C2.49239 17.0052 2.50285 16.9049 2.54114 16.8138L2.54132 16.8139L2.54642 16.8008C2.5689 16.7428 2.60198 16.6895 2.64395 16.6437C2.68976 16.6018 2.74301 16.5687 2.80099 16.5462L2.80102 16.5463L2.81023 16.5425C2.93196 16.4925 3.0685 16.4925 3.19023 16.5425ZM2.81302 11.5413L2.81405 11.5409C2.9051 11.5026 3.00546 11.4922 3.10246 11.5108C3.19712 11.5291 3.28443 11.5743 3.35394 11.6409C3.39713 11.6874 3.43111 11.7416 3.45405 11.8008L3.45823 11.8115L3.46291 11.8221C3.48767 11.8782 3.50047 11.9387 3.50047 12C3.50047 12.0613 3.48767 12.1218 3.46291 12.1779L3.46282 12.1778L3.45889 12.1872C3.43335 12.2483 3.39863 12.3052 3.35596 12.3557C3.3054 12.3984 3.24857 12.4331 3.18744 12.4587L3.1874 12.4586L3.17811 12.4627C3.12207 12.4874 3.06149 12.5002 3.00023 12.5002C2.93897 12.5002 2.87839 12.4874 2.82236 12.4627L2.8224 12.4626L2.81302 12.4587C2.75189 12.4331 2.69507 12.3984 2.6445 12.3557C2.60184 12.3052 2.56712 12.2483 2.54157 12.1872L2.54167 12.1872L2.53756 12.1779C2.51279 12.1218 2.5 12.0613 2.5 12C2.5 11.9387 2.51279 11.8782 2.53756 11.8221L2.54223 11.8115L2.54642 11.8008C2.56818 11.7446 2.59988 11.6929 2.63995 11.6481C2.69165 11.6037 2.75005 11.5677 2.81302 11.5413ZM2.29023 7.71C2.38743 7.79833 2.49905 7.86936 2.62023 7.92C2.80234 7.99658 3.00306 8.0175 3.19705 7.98013C3.39104 7.94275 3.56961 7.84876 3.71023 7.71H2.29023ZM3.34953 7.36324C3.28076 7.42761 3.19512 7.4713 3.10246 7.48916C3.00546 7.50784 2.9051 7.49738 2.81405 7.45909L2.81302 7.45866C2.75189 7.43312 2.69507 7.39839 2.6445 7.35573C2.60184 7.30516 2.56712 7.24834 2.54157 7.18721L2.54167 7.18717L2.53756 7.17787C2.51279 7.12184 2.5 7.06126 2.5 7C2.5 6.93874 2.51279 6.87816 2.53756 6.82213L2.53765 6.82217L2.54157 6.81279C2.56839 6.74861 2.60532 6.68918 2.65094 6.63676C2.71971 6.57239 2.80534 6.5287 2.89801 6.51084C2.995 6.49216 3.09536 6.50262 3.18642 6.54091L3.18634 6.54109L3.19948 6.54618C3.2556 6.56795 3.30729 6.59964 3.35209 6.63972C3.39653 6.69142 3.43258 6.74982 3.45889 6.81279L3.4588 6.81283L3.46291 6.82213C3.48767 6.87816 3.50047 6.93874 3.50047 7C3.50047 7.06126 3.48767 7.12184 3.46291 7.17787L3.46282 7.17783L3.45889 7.18721C3.43208 7.25139 3.39514 7.31082 3.34953 7.36324ZM21.0002 7.5H7.00023C6.86762 7.5 6.74045 7.44732 6.64668 7.35355C6.55291 7.25978 6.50023 7.13261 6.50023 7C6.50023 6.86739 6.55291 6.74022 6.64668 6.64645C6.74045 6.55268 6.86762 6.5 7.00023 6.5H21.0002C21.1328 6.5 21.26 6.55268 21.3538 6.64645C21.4476 6.74021 21.5002 6.86739 21.5002 7C21.5002 7.13261 21.4476 7.25979 21.3538 7.35355C21.26 7.44732 21.1328 7.5 21.0002 7.5ZM7.00023 11.5H21.0002C21.1328 11.5 21.26 11.5527 21.3538 11.6464C21.4476 11.7402 21.5002 11.8674 21.5002 12C21.5002 12.1326 21.4476 12.2598 21.3538 12.3536C21.26 12.4473 21.1328 12.5 21.0002 12.5H7.00023C6.86762 12.5 6.74045 12.4473 6.64668 12.3536C6.55291 12.2598 6.50023 12.1326 6.50023 12C6.50023 11.8674 6.55291 11.7402 6.64668 11.6464C6.74045 11.5527 6.86762 11.5 7.00023 11.5ZM7.00023 16.5H21.0002C21.1328 16.5 21.26 16.5527 21.3538 16.6464C21.4476 16.7402 21.5002 16.8674 21.5002 17C21.5002 17.1326 21.4476 17.2598 21.3538 17.3536C21.26 17.4473 21.1328 17.5 21.0002 17.5H7.00023C6.86762 17.5 6.74045 17.4473 6.64668 17.3536C6.55291 17.2598 6.50023 17.1326 6.50023 17C6.50023 16.8674 6.55291 16.7402 6.64668 16.6464C6.74045 16.5527 6.86762 16.5 7.00023 16.5Z" fill="#333333" stroke="#333333"/>
</svg>
