<svg width="36" height="36" viewBox="0 0 36 36" fill="none" xmlns="http://www.w3.org/2000/svg">
<path fill-rule="evenodd" clip-rule="evenodd" d="M3 12C3 8.68629 5.68629 6 9 6H19.5C22.8137 6 25.5 8.68629 25.5 12V24C25.5 27.3137 22.8137 30 19.5 30H9C5.68629 30 3 27.3137 3 24V12ZM9 9C7.34315 9 6 10.3431 6 12V24C6 25.6569 7.34315 27 9 27H19.5C21.1569 27 22.5 25.6569 22.5 24V12C22.5 10.3431 21.1569 9 19.5 9H9Z" fill="#365787"/>
<path fill-rule="evenodd" clip-rule="evenodd" d="M27.9931 10.1383C29.9237 8.4008 33 9.77088 33 12.3682V23.6321C33 26.2294 29.9237 27.5995 27.9931 25.862L23.4931 21.812C22.861 21.2431 22.5 20.4326 22.5 19.5821V16.4182C22.5 15.5677 22.861 14.7572 23.4931 14.1883L27.9931 10.1383ZM30 12.3682L25.5 16.4182L25.5 19.5821L30 23.6321L30 12.3682Z" fill="#365787"/>
</svg>
