<?xml version="1.0" encoding="UTF-8"?>
<svg id="Layer_1" data-name="Layer 1" xmlns="http://www.w3.org/2000/svg" viewBox="0 0 23.78 20.21">
  <defs>
    <style>
      .cls-1 {
        fill: #365787;
        fill-rule: evenodd;
      }
    </style>
  </defs>
  <path class="cls-1" d="M6.07,1.32h7.28c2.43,0,4.43,2,4.43,4.43V14.46c0,2.43-2,4.43-4.43,4.43H6.07c-2.43,0-4.43-2-4.43-4.43V5.75c0-2.43,2-4.43,4.43-4.43ZM3.79,5.75V14.46c0,1.29,1,2.14,2.14,2.14h7.28c1.29,0,2.14-1,2.14-2.14V5.75c0-1.29-1-2.14-2.14-2.14H5.93c-1.14,0-2.14,1-2.14,2.14Z"/>
  <path class="cls-1" d="M20.07,4.46c1.43-1.29,3.71-.29,3.71,1.57V14.32c0,1.86-2.29,2.86-3.71,1.57l-3.29-3c-.43-.43-.71-1-.71-1.57v-2.29c0-.57,.29-1.29,.71-1.57,0-.14,3.29-3,3.29-3Zm1.43,1.57l-3.29,3v2.29l3.29,3V6.04Z"/>
  <path class="cls-1" d="M.21,.32C.64-.11,1.21-.11,1.64,.32L19.64,18.46c.43,.43,.43,1,0,1.43s-1,.43-1.43,0L.21,1.75C-.07,1.46-.07,.75,.21,.32Z"/>
</svg>