<svg width="32" height="32" viewBox="0 0 32 32" fill="none" xmlns="http://www.w3.org/2000/svg">
<path fill-rule="evenodd" clip-rule="evenodd" d="M2.66669 10.6666C2.66669 7.72107 5.0545 5.33325 8.00002 5.33325H17.3334C20.2789 5.33325 22.6667 7.72107 22.6667 10.6666V21.3333C22.6667 24.2788 20.2789 26.6666 17.3334 26.6666H8.00002C5.0545 26.6666 2.66669 24.2788 2.66669 21.3333V10.6666ZM8.00002 7.99992C6.52726 7.99992 5.33335 9.19383 5.33335 10.6666V21.3333C5.33335 22.806 6.52726 23.9999 8.00002 23.9999H17.3334C18.8061 23.9999 20 22.806 20 21.3333V10.6666C20 9.19383 18.8061 7.99992 17.3334 7.99992H8.00002Z" fill="white"/>
<path fill-rule="evenodd" clip-rule="evenodd" d="M24.8828 9.0118C26.5988 7.46735 29.3333 8.6852 29.3333 10.9939V21.0063C29.3333 23.315 26.5988 24.5329 24.8828 22.9884L20.8828 19.3884C20.3209 18.8827 20 18.1623 20 17.4063V14.5939C20 13.838 20.3209 13.1175 20.8828 12.6118L24.8828 9.0118ZM26.6667 10.9939L22.6667 14.5939L22.6667 17.4063L26.6667 21.0063L26.6667 10.9939Z" fill="white"/>
</svg>
