<?xml version="1.0" encoding="utf-8"?>
<!-- Generator: Adobe Illustrator 26.5.0, SVG Export Plug-In . SVG Version: 6.00 Build 0)  -->
<svg version="1.1" id="Layer_1" xmlns="http://www.w3.org/2000/svg" xmlns:xlink="http://www.w3.org/1999/xlink" x="0px" y="0px"
	 viewBox="0 0 16.62 16.6" style="enable-background:new 0 0 16.62 16.6;" xml:space="preserve">
<style type="text/css">
	.st0{fill:#387D44;}
</style>
<path class="st0" d="M16.62,8.6c-0.03,0.1-0.05,0.2-0.08,0.3c-0.17,0.56-0.5,0.92-0.96,1.15c-2.05,0.98-4.09,1.97-6.14,2.95
	c-2.36,1.14-4.73,2.27-7.09,3.42c-0.89,0.44-1.65,0.05-2.04-0.58c-0.3-0.48-0.37-1.01-0.24-1.59c0.43-1.94,0.85-3.88,1.28-5.83
	c0.02-0.07,0.02-0.16,0-0.23C0.91,6.24,0.48,4.29,0.06,2.34C-0.21,1.08,0.59-0.06,1.71,0C1.9,0.01,2.1,0.08,2.28,0.17
	c4.43,2.12,8.85,4.25,13.28,6.38c0.55,0.27,0.91,0.72,1.03,1.41c0,0.02,0.02,0.03,0.03,0.04C16.62,8.2,16.62,8.4,16.62,8.6z
	 M2.26,8.86c-0.42,1.9-0.83,3.78-1.25,5.66c-0.05,0.24-0.03,0.47,0.11,0.67c0.21,0.3,0.48,0.34,0.87,0.16
	c3.49-1.67,6.97-3.35,10.46-5.02c0.91-0.44,1.81-0.87,2.72-1.31c0.18-0.09,0.35-0.2,0.42-0.43c0.15-0.44-0.01-0.8-0.44-1
	C11.43,5.79,7.7,4,3.98,2.21C3.29,1.88,2.6,1.55,1.92,1.22C1.71,1.12,1.5,1.09,1.3,1.23c-0.27,0.19-0.36,0.5-0.27,0.91
	C1.3,3.41,1.58,4.67,1.86,5.94c0.13,0.6,0.27,1.19,0.4,1.8c0.07,0,0.14,0,0.2,0c1.52,0,3.05,0,4.57,0c0.12,0,0.25,0.04,0.35,0.12
	c0.18,0.13,0.24,0.41,0.17,0.63C7.48,8.72,7.3,8.86,7.07,8.86c-1.5,0-3.01,0-4.51,0C2.47,8.86,2.37,8.86,2.26,8.86z"/>
</svg>
